<svg version="1.1" id="_x2014_ÎÓÈ_x5F_1" xmlns="http://www.w3.org/2000/svg" x="0" y="0" viewBox="0 0 1140 720" xml:space="preserve"><style>.st1{fill:#a6dcfa}.st2{fill:#60a9e4}.st3{fill:#daf2ff}.st4{fill:#fff}.st5{fill:#cd2a70}.st6{opacity:.7;fill:#a6dcfa}.st7{fill:#66a8de}.st8{opacity:.3;fill:#fff}.st9{fill:#32348d}.st10{fill:#1f1b62}.st11{fill:#4070b7}.st12{opacity:.5;fill:#32348d}.st14,.st15{fill:#4c86e8}.st15{opacity:.5}.st16{fill:#85005b}</style><path d="M3 348.3c142.5 2.6 175.8 136.4 300.2 141s167.1-169.4 286-166.3c119 3.1 266-210.6 365.8-212 99.8-1.4 107.9 39.3 182 46.1V723H3V348.3z" fill="#edf7fb"/><path class="st1" d="M911.2 472.1h8.5v97h-8.5z"/><path class="st2" d="M915.5 472.1h4.3v97h-4.3z"/><path class="st1" d="M682.3 313.5h8.4v11.2h-8.4zM990.4 389.8h8.4V401h-8.4z"/><path class="st1" d="M994.7 403.5H760.1c-4.5 0-10.9-3-14.2-6.7l-61.6-68.2c-3.3-3.7-2.3-6.7 2.2-6.7h234.6c4.5 0 10.9 3 14.2 6.7l61.6 68.2c3.2 3.7 2.3 6.7-2.2 6.7z"/><path class="st3" d="M914.8 296.5H693.3c-8.1 0-14.7-6.6-14.7-14.7V148.1c0-8.1 6.6-14.7 14.7-14.7h221.4c8.1 0 14.7 6.6 14.7 14.7v133.7c.1 8.1-6.5 14.7-14.6 14.7z"/><path class="st4" d="M840.5 206.1h17.3v76.2h-17.3zM861.1 206.1h17.3v76.2h-17.3zM881.6 206.1h17.3v76.2h-17.3zM902.2 206.1h17.3v76.2h-17.3z"/><path class="st5" d="M840.5 251.7h17.3v4.6h-17.3zM861.1 230.3h17.3v4.7h-17.3zM881.6 226.9h17.3v4.7h-17.3zM902.2 213.9h17.3v4.8h-17.3z"/><path class="st6" d="M820.9 229.1c-13 0-22.4 11.9-37.3 12.7-14.9.8-21.2-5.7-39-5.4-17.8.2-24 14.7-48.8 14.7v31.2h125.1v-53.2z"/><path class="st4" d="M695.8 261.7c13 0 18.5-13.5 33.4-12.7 14.9.8 28.5 24.5 46.4 24.7 17.8.2 20.6-12 45.4-12v20.6H695.8v-20.6z"/><path class="st3" d="M994.7 392.5H760.1c-4.5 0-10.9-3-14.2-6.7l-61.6-68.2c-3.3-3.7-2.3-6.7 2.2-6.7h234.6c4.5 0 10.9 3 14.2 6.7l61.6 68.2c3.2 3.7 2.3 6.7-2.2 6.7z"/><path class="st7" d="M770.7 384.9h-16.5l-7.1-7.5h16.5zM791.3 384.9h-16.6l-7.1-7.5h16.5zM811.8 384.9h-16.5l-7.1-7.5h16.5zM879.1 384.9l-50.2-.1-16.8-17.7 50.2.1z"/><path class="st1" d="M791.3 360.8l-58.2-.1-25.2-27 58.1.2z"/><path class="st7" d="M857.9 360.7h-1.7l-25.5-26.8h1.7zM761.1 374.7h-16.5l-7.1-7.5H754zM781.7 374.7h-16.5l-7.1-7.5h16.5zM802.2 374.7h-16.5l-7.1-7.5h16.5zM544.3 448.1v-38c0-5.6 4.6-10.1 10.1-10.1H629v-9.6c0-5.6-4.6-10.1-10.1-10.1H510.7c-5.6 0-10.1 4.6-10.1 10.1v172.4c0 5.6 4.6 10.1 10.1 10.1h108.2c5.6 0 10.1-4.6 10.1-10.1V461.2c0-1.7-1.4-3-3-3h-71.6c-5.6 0-10.1-4.5-10.1-10.1z"/><path class="st3" d="M466.3 456.7h52.4v30.9h-52.4z"/><path class="st4" d="M485 456.7h52.4v30.9H485z"/><path class="st7" d="M576.6 421.1H629v37.1h-52.4z"/><path class="st1" d="M593.9 421.1H629v37.1h-35.1z"/><path class="st1" d="M584.4 448.1v-38c0-5.6 4.6-10.1 10.1-10.1h65c5.3 0 9.6-4.3 9.6-9.6 0-5.6-4.6-10.1-10.1-10.1H550.8c-5.6 0-10.1 4.6-10.1 10.1v172.4c0 5.6 4.6 10.1 10.1 10.1H659c5.6 0 10.1-4.6 10.1-10.1V461.2c0-1.7-1.4-3-3-3h-71.6c-5.5 0-10.1-4.5-10.1-10.1z"/><path class="st8" d="M659 572.8c5.6 0 10.1-4.6 10.1-10.1V461.2c0-1.7-1.4-3-3-3h-71.6c-5.6 0-10.1-4.6-10.1-10.1v-38c0-5.6 4.6-10.1 10.1-10.1h65c5.3 0 9.6-4.3 9.6-9.6 0-5.6-4.6-10.1-10.1-10.1H550.8c14.6 4.2-1.6 76.5 37.9 110.5 26.4 22.6 37.6 82.2 37.6 82.2H659z"/><path class="st9" d="M647.6 393.2c0-1.2-1-2.2-2.2-2.2-1.2 0-2.2 1-2.2 2.2 0 1.2 1 2.2 2.2 2.2 1.2 0 2.2-1 2.2-2.2zM653.2 393.2c0-1.2-1-2.2-2.2-2.2-1.2 0-2.2 1-2.2 2.2 0 1.2 1 2.2 2.2 2.2 1.2 0 2.2-1 2.2-2.2zM658.8 393.2c0-1.2-1-2.2-2.2-2.2s-2.2 1-2.2 2.2c0 1.2 1 2.2 2.2 2.2s2.2-1 2.2-2.2z"/><path class="st10" d="M457.3 487.2h58.9v3.9h-58.9z"/><path class="st9" d="M481.7 487.2h58.9v3.9h-58.9z"/><path class="st11" d="M707.2 562h-13.4c-.4 0-.7-.3-.7-.7 0-.4.3-.7.7-.7h13.4c6.9 0 12.5-5.6 12.5-12.5V403.8c0-7.7 6.2-13.9 13.9-13.9h11.2c.4 0 .7.3.7.7 0 .4-.3.7-.7.7h-11.2c-6.9 0-12.5 5.6-12.5 12.5v144.3c0 7.7-6.2 13.9-13.9 13.9z"/><path class="st11" d="M705.7 554.9h-14.1c-.4 0-.7-.3-.7-.7s.3-.7.7-.7h14.1c3.7 0 6.7-3 6.7-6.7v-144c0-11 9-20 20-20h5.1c.4 0 .7.3.7.7 0 .4-.3.7-.7.7h-5.1c-10.3 0-18.6 8.3-18.6 18.6v144c0 4.5-3.6 8.1-8.1 8.1z"/><path class="st9" d="M684.6 472.7c3.6-8.9 12.9-2.4 30.6-9 17.7-6.6 16.9-9.3 21.4-9.4 4.5-.2 1.3-2.5-5.5-3.9-6.9-1.5-19.5 2.2-31.2 1.6-11.7-.6-19.4 12.7-18.6 17.5.9 4.8.9 3.8-.5 8.3-1.5 4.5-3.2 47.4-2.6 55.4 0 .3 1.2.4 1.2 0 .1-6.4 2.1-48.2 2.8-52.7.6-4.7 2.4-7.8 2.4-7.8z"/><path class="st9" d="M683.5 533.5c-2.4-33.3-6.2-77-9.4-91.8-3.2-14.8-30.4-7.7-41.5-4.4-11.1 3.3-20.6 3.1-22.4 9.8-1.8 6.7-2.5 10.9-1 11.4s1.4-3 7.5-2.9c6.1.1 21 4.9 35.8.1 14.9-4.9 16.5-9.5 18.9-7.2 2.4 2.3 2.4 5.9 3 8.5.6 2.6 6.7 73.7 7 76.9.4.9 2.2.1 2.1-.4z"/><path class="st9" d="M711 516.8c-7.8-3.4-20.3-9.6-23.2-19.6-2.1-7.4-3.9-5.6-4.2-2.1-.3 3.9-2.2 37.7-2.4 39.8-.1 1.2-1.3.8-1.3.4.1-2.6 2.1-40.8 2.8-42.9.7-2.1 1.8-2.2 2.6-3.6 1-1.8 1.3-2.6 6.5-3.8 5.2-1.2 18 11.1 19.2 18.3 1.2 7.2 1.5 10.2 1.8 11.6.4 1.3-.5 2.4-1.8 1.9z"/><path class="st12" d="M660.7 440.7c-10.8 4.1-25.5-.8-36.5 2-10.1 2.6-13.4 4.1-11.5 13.5.9-.4 2.2-.8 4.1-.7 6.1.1 21 4.9 35.8.1s16.5-9.5 18.9-7.2c.5.5.9 1 1.2 1.5.1.1-1.2-13.2-12-9.2z"/><path class="st9" d="M676.8 531.7c-.4-7.2-1.8-37.7-5.9-50.5s-19.8-8.1-27.1-5.3c-7.2 2.8-11.3 8.4-15.2 11.2-3.9 2.8-.3 3.1 1.3 2.4 1.5-.7 12.6 4 21.9.1 9.3-3.9 13.2-9.4 15.8-7.7 2.6 1.8 4.4 12.9 4.8 20.3.4 7.3 3 28.9 3.2 29.8.2.3 1.2.1 1.2-.3z"/><path class="st4" d="M689.5 528.7h13.1v39.4c0 2.6-2.1 4.7-4.7 4.7h-31.5c-2.8 0-5-2.3-5-5.1v-39.1h28.1z"/><path class="st6" d="M691.4 528.7h11.1v38.8c0 3-2.4 5.4-5.4 5.4h-28.7c37.7-1.6 13.8-31.5 23-44.2z"/><path class="st8" d="M919.1 133.3H709.4c29.3 0 54.8 58.8 88.8 65.9 63.2 13.2 61 52.7 131.3 52.7V143.8c0-5.8-4.7-10.5-10.4-10.5z"/><path class="st1" d="M910.5 353.5c-44.9-4.6-48.1-4.9-52-7.4-3.9-2.5-10-6.3-14.7-6.8-4.7-.4-9.6 3-10.6 5.1-.9 2.1 8.4 2.1 11.1 2.9 2.7.8 4.3 1.4 4 2.3-.4 1.5-4.5-.8-5.8-1-1.3-.2-1.5 1.4-.9 1.9s7.6 3.9 10.8 3.8c3.2-.1 4.3-1 9.9.7 5.6 1.7 43.1 13.9 43.1 13.9l5.1-15.4z"/><path class="st12" d="M900.5 359.5s-40.3-7.3-45.8-12.1c-4.8-4.1-10.3-5.1-18.8-5.6-1.3.9-2.2 1.9-2.6 2.7-.9 2.1 8.4 2.1 11.1 2.9 2.7.8 4.3 1.4 4 2.3-.4 1.5-4.5-.8-5.8-1-1.3-.2-1.5 1.4-.9 1.9s7.6 3.9 10.8 3.8c3.2-.1 4.3-1 9.9.7 5.6 1.7 43.1 13.9 43.1 13.9l2.8-8.5-7.8-1z"/><path class="st1" d="M909.6 281.7s-2.6 18.5-1.9 25.6c1.1 10.2 2.9 15.5 7.7 15.9 5.2.4 4.4 13.6 1.2 12.5-4.5-1.6 16.7 8.9 16.7 8.9s12.6-16.7 7.2-31.4c-5.4-14.8-12.7-27-18.1-31.4-5.5-4.5-12.8-.1-12.8-.1zM891.3 327.6s-29.7-9.2-38.2-15.4c-18.6-13.8-44.6-46-48.7-45.1-3 .7 4.9 5.5 4.1 11.6-.1.9-5.2 7.5-.5 11.2 6.5 5.2 9.2 1.7 12.6 5.6 5.3 6 19 27.7 23.7 30.9 3.6 2.4 43.5 21 43.5 21l3.5-19.8z"/><path d="M857.8 461.8c1.1 8 6.4 25.9 6.9 44.8.6 22.8-3.5 47-.7 56.9 1.6 5.9.2 9.6-1.1 9.6H843c-1.5 0-5.5.1-5.9-2.3-.6-3.9 14.6-4.8 15.6-9.3 1.1-4.8-2.4-15.3-4.9-27.1-5.7-27.7-17.2-66.7-12.3-76.7.7-1.5 12.8-15 21.4-9.8 8.8 5.1.3 9.6.9 13.9z" fill="#9bd5ed"/><path class="st12" d="M850.9 481.9l-10.3 20.3c2.5 10.9 5.3 22.2 7.3 32.1 2.4 11.8 6 22.3 4.9 27.1-1.1 4.5-16.2 5.4-15.6 9.3.4 2.4 4.4 2.3 5.9 2.3h17.8c-4.9-.2-5-5.5-2.7-9 2.3-3.4 2.2-41.4-7.3-82.1z"/><path class="st1" d="M889.4 441.6s-40.7 8.3-46.4 21c-5.3 11.7-15.8 94-23.2 97.8-7.3 3.7-26.6 7.9-22.6 11.7 1.7 1.6 29.5.6 32.3.6 5.6 0 1.5-8.4 2.8-10.5 4.1-6.4 19-38.3 26.1-57.4 10-26.7 9.1-38.6 10.8-39.6 3.1-2 20.2-23.6 20.2-23.6z"/><path class="st5" d="M913.4 416.7c-24.8 4.1-50.4 18.4-64.6 28.4-11.5 8.2-14.1 10.7-14 13.5.1 10.5 44.4 41.7 44.4 28.1V474c0-5.5 4.5-9.9 9.9-9.8l62.9 1c15.7.7 16.2-22.9 15.7-29.5-1.4-15.8-42.8-20.9-54.3-19z"/><path class="st9" d="M886.6 326.9c-5 .2-12 11.9-3.5 17.6 8.5 5.6 16.9 11.3 17.5 21.2.7 10.4-1.2 15.3 9.9 24.8 10.1 8.6 12.8 23.7 3.9 26.1 0 0-15.6 8.7-10.9 9.2 11.1 1.3 16.1 5.1 26.2 10 10.1 4.9 24.8 8.7 29.4 7.5 7.8-2 9.4-1.8 7.8-17-1.5-14.4-2.7-54.5-4.4-67.8-2.5-19.2-5.6-9.2-7.3-8.9-2.8.3-58.4-23.1-68.6-22.7zM843.1 573H863c1.2 0 2.6-3.4 1.3-8.8.4 1.7-4.1 5.2-7.4 3.9-2.6-1-3-4-5.1-5.2-3.6 3.2-15.2 4.4-14.6 7.8.3 2.4 4.4 2.3 5.9 2.3zM827.9 567.8c-3.5.8-6-6.3-10.8-6.1-8.4 3.4-23.4 7.1-19.9 10.5 1.7 1.6 28.3 1 31.1 1.1 6.6.1 3.9-6.1 3.8-9.3 0-.1-.8 2.9-4.2 3.8z"/><path class="st14" d="M903.6 288.6c.1 5.2 7.9 15.1 9.5 16.1 0 0 3.8 1.8 4.4 2 0 0 4.4-5.4 7-2.5 3 3.5-3.2 7.9-2 12.5 2.4 8.6 7.2 5.5 6.9 18.4-.1 6.6-10.5 19.1-2.9 24.9 8.7 6.6 12.9 4.6 20.7 12.1 7.6 7.3 15.8 8.6 26.7 4.8 12.4-4.4 13.1-26.8 9.7-31.5-8.6-11.8-17.4-9-13.8-29.8 3.5-20.1-18.3-20.4-21.7-27.5-3.6-7.7-5.7-10.4-12.8-13.6-16.2-7.4-31.9 2.7-31.7 14.1z"/><path class="st12" d="M929.5 413.2c2.9-13.7-10.5-25.8 0-35.4 10.5-9.6 19.1-33.9 11-43.3-8.2-9.4-.5-31.9-7.6-38.4-7.1-6.6-27.1-8.2-25.3-17.3-2.5 2.8-4 6.2-3.9 9.7.1 2.6 2 6.4 4.2 9.6-.2 3.5-.3 6.8-.1 9.1 1.1 10.2 2.9 15.5 7.7 15.9 4.5.4 4.5 10.5 2.3 12.3-.1.1-.2.1-.4.2-1.1.5-3.2.9-8.5-1.1-6-2.2-38.2-4.9-54.5-10.9-16.3-6-23.9-24.1-29.1-29.8-4.4-4.9-10.4-10.7-17.3-13.8-1.2 2.3-3.5 7 .2 9.9 6.5 5.2 9.2 1.7 12.6 5.6 5.3 6 19 27.7 23.7 30.9 3.3 2.2 36.1 17.6 42.4 20.5 7.1 4.9 13.3 10.3 13.9 18.8.7 10.4-1.2 15.3 9.9 24.8 10 8.5 12.8 23.6 4 26.1-.4 0-.8.1-1.2.2-24.8 4.1-50.4 18.4-64.6 28.4-11.5 8.2-14.1 10.7-14 13.5-2.4 4.9-.8 16.9 2.1 31.1-5.3 28.4-11.9 68.2-17 70.8-7.3 3.7-26.6 7.9-22.6 11.7.6.6 4.5.8 9.4.9 10.6-6.1 18.4-4.7 21.7-14 5.4-15.2 14.7-96.3 44.2-117.4 29.3-21.2 53.9-14.9 56.8-28.6z"/><path class="st1" d="M920.6 462.4h-31.5c-5.6 0-10.1 4.5-10.1 10.1h51.7c0-5.6-4.6-10.1-10.1-10.1z"/><path class="st2" d="M984.7 385.9h-32.5l-2.5 1.4-4.9 13.5-6.4 38.9-6.8 16.6-28.4 16.1h39.9c32.4 0 39.5-37.2 39.3-51.1-.2-11.7.5-28 6-32.6 2.3-1.9-1-5.3-3.7-2.8z"/><path class="st1" d="M894.4 462.4c30.1 0 43.5-19.1 45.3-41.1 1.8-22 3.9-36.4 12.6-36.4 7.1-.1 27.3-.1 34.4-.1 1.4 0 2.5 1.1 2.5 2.5h-34.8c-8.3 0-9.8 20.2-9.6 34.1.3 13.9-6.8 51.1-39.3 51.1-32.4 0-11.1-10.1-11.1-10.1zM952 573.4h-72.7c0-3.5 2.8-6.3 6.3-6.3h60.1c3.5 0 6.3 2.8 6.3 6.3z"/><path class="st8" d="M924.7 472.5h18.4c32.4 0 39.5-37.2 39.3-51.1-.2-11.7.5-28 6-32.6 2.3-2-1-5.4-3.7-2.9h-2.9c-16.5 19.8-17.9 29.6-22.5 55.6-5.4 29.4-34.6 31-34.6 31z"/><path class="st2" d="M923.7 573.4H952c0-3.5-2.8-6.3-6.3-6.3H902c8.2 2.3 16 4.6 21.7 6.3z"/><g><path class="st9" d="M1063.2 559.4c-.4 6.5 2.6 13.1-2.5 13.4-6.7.4-22.4.1-22.7 0-1.4-.7-.2-5.1 4-6.1 7.8-1.8 9.3-10.1 9.3-10.1 5.2.9 12.1-1.4 11.9 2.8zM1025.2 560.1c-.4 3.6 2.2 12.3-3.4 12.6-6.1.4-29.6.1-29.9-.1-1.4-.7-.2-5 4-6.1 4.2-1.2 10.8-2.7 11.7-2.8 3.3-.4 3-3.6 3-3.6 5.3.9 15.1-3.9 14.6 0z"/><path class="st10" d="M1037.4 571.6c0 .6.2 1 .6 1.2.3.1 15.9.4 22.7 0 1.2-.1 2-.5 2.4-1.2h-25.7zM991.4 571.6c0 .5.2.9.6 1 .3.1 23.8.4 29.9.1 1.1-.1 1.9-.5 2.5-1.1h-33z"/><path class="st15" d="M1013.1 572.9c3.7 0 6.9-.1 8.7-.2 5.6-.4 3-9 3.4-12.6.1-1.1-.6-1.5-1.7-1.6l-5.3 4.7c.2 5.3-2.6 8.2-5.1 9.7zM1063.2 559.4c0-.6-.1-1.1-.3-1.5l-1.7 3.2c.3 4.8-5.3 9.6-10.6 9-2.8-.3-4.4 1.3-5.3 2.8 5.1.1 11.6 0 15.4-.2 5-.2 2-6.8 2.5-13.3z"/><path class="st16" d="M1022.2 368.9l14 96.8s14.1 87.5 15.1 90.9c1.1 3.8 11.2 7 11.9 2.4 4.2-29.1 4.7-85.1 3.5-96.4-1.2-12.1 15.7-86.1 5.4-93.7-10.3-7.7-49.9 0-49.9 0z"/><path class="st5" d="M1063.2 559.4c4.2-29.1 6.8-74.6 5.5-95.3-.8-12.1 5.3-55.9 8.1-71.1 2.3-12.6-54.5-23.7-54.5-23.7l1.1 8.6c16.5-5.7 35.1 9.5 36.6 22.7 1.5 13.3-8.7 33.5-10.1 60.9-.9 18 13.9 37 11.3 99.8.9-.3 1.8-1.1 2-1.9z"/><path class="st1" d="M1024 186.1s-5.1 24 0 32.2 12.1 5.8 15.3 7.7c.9.6 3.4 3 1.6 5.9-6.3 10.2 8.5 18.4 28.3 4.4 2.7-1.9-3.2-6.9-6.6-11-3.2-3.9-6.9-8.1-8.9-12.7-4.1-9.5-3.8-21.9-8.2-26.5-4.4-4.6-21.5 0-21.5 0z"/><path class="st1" d="M1005.1 266.5c3.3-13.8 6.4-23.2 8-30.4.9-4-2.1-7.8-3.2-10.8-1.2-3.4-.6-5.8 1.3-6.5 2.1-.7 7.6-3 8-4.4 1.5-4.9-.1-10.6 1.9-10.5 3.4.2-.1 15.6 3.4 18.8 2 1.8 10.9 1 10.9 3.3.1 4.6-6.5-3.6-10 8-1.6 5.1-.9 9.2-8.4 38.1-.7 3.1-12.6-2.4-11.9-5.6z"/><path class="st12" d="M1059.3 229.7c-3.2-3.9-2.4-3.9-4.4-8.4-4.1-9.5-5.1-30.6-9.4-35.2-4.4-4.6-21.5 0-21.5 0s-1.9 9.1-2.2 18c-.2-.2-.4-.3-.6-.3-2-.1-.4 5.6-1.9 10.5-.4 1.4-5.9 3.7-8 4.4-1.9.7-2.5 3.1-1.3 6.5 1.1 3 4 6.9 3.2 10.8-1.6 7.2-4.7 16.6-8 30.4-.8 3.2 11.2 8.7 12 5.5 7.4-28.9 6.8-32.9 8.4-38.1 3.5-11.5 10.1-3.3 10-8 0-.5-.4-.8-1-1.1 1.9.3 3.6.4 4.8 1.1.9.6 3.4 3 1.6 5.9-6.3 10.2-3.2 19 16.7 5 2.5-1.6 5-2.9 1.6-7zm-34.8-7.1c-1.3-1.1-1.6-3.9-1.7-7 .3 1 .7 1.9 1.2 2.7 2.1 3.5 4.6 5 7 5.8-2.5-.3-5.4-.5-6.5-1.5z"/><path class="st16" d="M1012 397.1s-9.2 47.9-9.2 55c0 7.1 8.3 99.3 7.9 108.1-.2 4.4 13.3 4.1 14.5 0 1.1-3.5 5-89.1 8.8-101.4 3.8-12.3 47.4-86.5 42.7-93-4.7-6.6-64.7 31.3-64.7 31.3z"/><path class="st5" d="M1021.7 353.9s10.7-.4 6.1 20.6l-1.5 17.5c-3.3 14.2-7.8 46.5-12.2 77.6-3.8 26.8 4.6 81.8 4.1 93.7 4.2 0 6.5-.9 7.1-2.8 1.1-3.5 5-89.1 8.8-101.4 2.1-6.6 22.1-44.3 33.3-63.7l1.3-33.2c-15.5-4.7-47-8.3-47-8.3z"/><path class="st10" d="M1060.9 223.3c1.7 2 3 4.2 9.6 7.7 7.6 4.1-42.1 14.1-35 7.8 3.7-3.3 4.6-6.5 5.9-7.4 4.8-3.6 19.5-8.1 19.5-8.1z"/><path class="st9" d="M1007.5 257c-6.1 17.4-8.8 22-8.8 22l16.2-3.7 6-15.6-13.4-2.7z"/><path class="st14" d="M1090.9 268.5c-.7-31.6-11.6-33-20.2-37.4-8.1-4.1-28.7 1.9-36.1 8.5-18.5 15.3-40.7 39.7-39.8 51.3.9 11.6 1.7 13.4 7.5 13.5 3.3 0 11.7-5.8 19.5-12.6 7.2-6.6-.2 49.7-2.1 64.7-1.9 15-6 34.4-7.6 40.6-2.1 8 62 11.6 64.8-4.6 4.3-25.6 14.7-91.6 14-124z"/><path class="st12" d="M1009.7 288.7c-.1-3.9-2.7-7.5-5-8.1-1.6-.4-2.7-1.3-6.6 0-2.3 4.3-3.6 8-3.4 11 .1.9.2 1.8.3 2.6.9 8.6 2 10.1 7.2 10.1 3.3 0 11.7-5.8 19.5-12.6 1-.9 1.8-.6 2.3.7-2.8-11-9.1-5.5-14.3-3.7z"/><path class="st6" d="M1070.5 231c4.2 5.3.3 12.4-1.8 17.9-10.8 27.3 8.3 48.9-9.8 78.6-18.1 29.7-27.8 31.9-34.9 75 18.2 3.1 50.8 1.4 52.8-10.1 4.4-25.5 15.5-91.6 14.1-124-1.4-29.9-8.8-32-20.4-37.4z"/><path class="st1" d="M1002.8 277.9c2.9.8 6.3 6.3 4.5 11.2-1.5 4.2-4 8.5-8.4 8.1-4.7-.4-8.2-3.7-8.2-5.7 0-3.7 3.5-12.9 5.3-13.5 4-1.4 5.1-.5 6.8-.1z"/><path class="st9" d="M1029.1 167.8c8.2 0 4.6 8.2 13.8 7 5.4-.7 5.9 3.5 9.9 6.7s11.9 4 9.1 12.2c-2.8 8.2-7.6 20.5-4.4 25.3 1.1 1.7-9.6 5.3-11.7 3.6-3.5-3-9.2-8.7-9.2-8.7 1.9-1.2 3.7-7.8.6-8.6-3.4-.8-4.8 4.4-4.8 4.4l-4.4-1.3c.4-9.1-5.8-9.2-5.8-9.2.5-6.6-17.6-17-11-25.5 3.6-4.6 10.6 3.5 10.6.3-.1-5.8 4.6-6.2 7.3-6.2z"/></g><path class="st12" d="M1053 215.6c-5.8-15.8 4.7-20.3-10.2-29.5-14.9-9.2-22.5 6.5-32.6-5.4 2.5 6.7 12.2 13.6 11.8 18.5 0 0 6.3.1 5.8 9.2l4.4 1.3s1.5-5.2 4.8-4.4c3.1.8 1.3 7.4-.6 8.6 0 0 5.7 5.7 9.2 8.7 1.3 1.1 6.1.1 9.1-1.3-.3-1.7-.9-3.5-1.7-5.7z"/><path class="st9" d="M1060.9 223.3s-1.9.6-4.6 1.5c3.3 5.6 8.8 3.7 14.2 6.2-6.7-3.5-8-5.7-9.6-7.7z"/><path class="st7" d="M846.1 360.7h-1.7L819 333.9h1.7zM834.3 360.7h-1.7l-25.4-26.8h1.7zM822.5 360.7h-1.7l-25.4-26.8h1.7zM810.7 360.7H809l-25.4-26.8h1.7z"/><path class="st7" d="M800.4 343.5c-.2-.2-.5-.3-.8-.3h-1.7v.9l.5.1-2.2 3.1h1.7l2.4-2.2c.5-.5.5-1.2.1-1.6z"/><path class="st1" d="M795 345.8l2.2-2.3c.4-.4 1.1-.4 1.5 0 .4.4.4 1.1 0 1.5l-2.4 2.2-1.3-1.4z"/><path class="st7" d="M819.7 351.4c-.2-.2-.5-.3-.8-.3h-1.7v.9l.5.1-2.2 3.1h1.7l2.4-2.2c.5-.5.5-1.1.1-1.6z"/><path class="st1" d="M814.3 353.8l2.2-2.3c.4-.4 1.1-.4 1.5 0 .4.4.4 1.1 0 1.5l-2.4 2.2-1.3-1.4z"/><path class="st7" d="M820.1 339.4c-.2-.2-.5-.3-.8-.3h-1.7v.9l.5.1-2.2 3.1h1.7l2.4-2.2c.5-.5.5-1.1.1-1.6z"/><path class="st1" d="M814.7 341.8l2.2-2.3c.4-.4 1.1-.4 1.5 0 .4.4.4 1.1 0 1.5l-2.4 2.2-1.3-1.4z"/><path class="st7" d="M830.9 338.5c-.2-.2-.5-.3-.8-.3h-1.7v.9l.5.1-2.2 3.1h1.7l2.4-2.2c.5-.6.5-1.2.1-1.6z"/><path class="st1" d="M825.5 340.8l2.2-2.3c.4-.4 1.1-.4 1.5 0 .4.4.4 1.1 0 1.5l-2.4 2.2-1.3-1.4z"/><path class="st7" d="M847.2 343.2c-.2-.2-.5-.3-.8-.3h-1.7v.9l.5.1-2.2 3.1h1.7l2.4-2.2c.5-.5.5-1.2.1-1.6z"/><path class="st1" d="M841.8 345.5l2.2-2.3c.4-.4 1.1-.4 1.5 0 .4.4.4 1.1 0 1.5l-2.4 2.2-1.3-1.4z"/><g><path class="st4" d="M696.7 146.2h3.6v69.1h-3.6zM726.5 146.2h3.6v69.1h-3.6zM756.3 146.2h3.6v69.1h-3.6zM786.1 146.2h3.6v69.1h-3.6zM815.9 146.2h3.6v69.1h-3.6z"/><path class="st5" d="M695.8 166.3v-10.7c0-1.5 1.2-2.7 2.7-2.7 1.5 0 2.7 1.2 2.7 2.7v10.7c0 1.5-1.2 2.7-2.7 2.7-1.5 0-2.7-1.2-2.7-2.7zM725.6 196.7v-21.4c0-1.5 1.2-2.7 2.7-2.7 1.5 0 2.7 1.2 2.7 2.7v21.4c0 1.5-1.2 2.7-2.7 2.7-1.5-.1-2.7-1.3-2.7-2.7zM785.2 179.4v-15.1c0-1.5 1.2-2.7 2.7-2.7 1.5 0 2.7 1.2 2.7 2.7v15.1c0 1.5-1.2 2.7-2.7 2.7-1.5 0-2.7-1.2-2.7-2.7zM815 179.4v-5.1c0-1.5 1.2-2.7 2.7-2.7 1.5 0 2.7 1.2 2.7 2.7v5.1c0 1.5-1.2 2.7-2.7 2.7-1.5 0-2.7-1.2-2.7-2.7zM755.4 201.3v-44.7c0-1.5 1.2-2.7 2.7-2.7 1.5 0 2.7 1.2 2.7 2.7v44.7c0 1.5-1.2 2.7-2.7 2.7-1.5 0-2.7-1.2-2.7-2.7z"/></g><g><path class="st6" d="M697.8 275.9h-45.9c-2.2 0-3.9-1.8-3.9-3.9v-45.9c0-2.2 1.8-3.9 3.9-3.9h45.9c2.2 0 3.9 1.8 3.9 3.9V272c0 2.2-1.7 3.9-3.9 3.9z"/><path class="st4" d="M674.8 229c-10.6 0-19.2 8.6-19.2 19.2s8.6 19.2 19.2 19.2 19.2-8.6 19.2-19.2-8.5-19.2-19.2-19.2zm0 33.9c-8.1 0-14.7-6.6-14.7-14.7s6.6-14.7 14.7-14.7 14.7 6.6 14.7 14.7-6.5 14.7-14.7 14.7z"/><path class="st9" d="M689.6 248.2c0 4.8-2.3 9.1-5.9 11.8-.9.7-1.2 1.8-.6 2.8l.1.2c.6 1.1 2.1 1.5 3.2.7 4.7-3.5 7.8-9.1 7.8-15.4 0-9.8-7.3-17.9-16.8-19.1-1.3-.2-2.5.8-2.5 2.1v.2c0 1.1.8 2 1.9 2.1 7.2.9 12.8 7.1 12.8 14.6z"/></g><g><path class="st6" d="M976.1 184H838.7c-5 0-9.2-4.1-9.2-9.2v-83c0-5 4.1-9.2 9.2-9.2h137.5c5 0 9.2 4.1 9.2 9.2v83c-.1 5.1-4.2 9.2-9.3 9.2z"/><path class="st4" d="M904.4 95.2h6.8v6.8h-6.8zM921.9 95.2h6.8v6.8h-6.8z"/><path class="st5" d="M939.4 95.2h6.8v6.8h-6.8zM956.8 95.2h6.8v6.8h-6.8z"/><path class="st4" d="M852.1 112.6h6.8v6.8h-6.8zM869.5 112.6h6.8v6.8h-6.8zM887 112.6h6.8v6.8H887zM904.4 112.6h6.8v6.8h-6.8zM921.9 112.6h6.8v6.8h-6.8z"/><path class="st5" d="M939.4 112.6h6.8v6.8h-6.8zM956.8 112.6h6.8v6.8h-6.8z"/><path class="st4" d="M852.1 130h6.8v6.8h-6.8z"/><path class="st9" d="M869.5 130h6.8v6.8h-6.8z"/><path class="st4" d="M887 130h6.8v6.8H887zM904.4 130h6.8v6.8h-6.8zM921.9 130h6.8v6.8h-6.8z"/><path class="st5" d="M939.4 130h6.8v6.8h-6.8zM956.8 130h6.8v6.8h-6.8z"/><path class="st4" d="M852.1 147.4h6.8v6.8h-6.8zM869.5 147.4h6.8v6.8h-6.8zM887 147.4h6.8v6.8H887zM904.4 147.4h6.8v6.8h-6.8zM921.9 147.4h6.8v6.8h-6.8z"/><path class="st5" d="M939.4 147.4h6.8v6.8h-6.8zM956.8 147.4h6.8v6.8h-6.8z"/><path class="st4" d="M852.1 164.7h6.8v6.8h-6.8zM869.5 164.7h6.8v6.8h-6.8zM887 164.7h6.8v6.8H887zM904.4 164.7h6.8v6.8h-6.8zM921.9 164.7h6.8v6.8h-6.8z"/><path class="st8" d="M985.3 89.2c0-3.6-2.9-6.5-6.5-6.5h-95.1c20.7 16.7 27.2 13.6 45.2 26.5 19.8 14.2 37.7 5.5 56.4 7.5V89.2z"/></g><path d="M472.3 576.7c-2.3-.3-2-3.7.3-3.7h626.3c3.3 0 3.6 4.8.4 5.3-2.8.4-6.1.7-10.2.9-14.6.6-23.9 19.3-57.2 20.6-49.1 1.9-77.4-6.6-112.2-7.6-34.8-.9-119.7 14.7-165.1 7.8s-107.2 8.8-164.2 6.7c-41.9-1.6-86.8-28.2-111.4-29.4-2.6-.1-4.9-.3-6.7-.6z" opacity=".7" fill="#d9f4ff"/></svg>